<?xml version="1.0" encoding="UTF-8"?>
<svg width="20px" height="20px" viewBox="0 0 20 20" version="1.1" xmlns="http://www.w3.org/2000/svg" xmlns:xlink="http://www.w3.org/1999/xlink">
    <title>Hamburger</title>
    <g id="Hamburger" stroke="none" stroke-width="1" fill="none" fill-rule="evenodd" fill-opacity="0.8">
        <path d="M2,16 L18,16 C18.5522847,16 19,15.5522847 19,15 C19,14.4477153 18.5522847,14 18,14 L2,14 C1.44771525,14 1,14.4477153 1,15 C1,15.5522847 1.44771525,16 2,16 Z M2,11 L18,11 C18.5522847,11 19,10.5522847 19,10 C19,9.44771525 18.5522847,9 18,9 L2,9 C1.44771525,9 1,9.44771525 1,10 C1,10.5522847 1.44771525,11 2,11 Z M1,5 C1,5.55228475 1.44771525,6 2,6 L18,6 C18.5522847,6 19,5.55228475 19,5 C19,4.44771525 18.5522847,4 18,4 L2,4 C1.44771525,4 1,4.44771525 1,5 Z" id="Shape" fill="#61656C" fill-rule="nonzero"></path>
    </g>
</svg>