<svg width="78" height="72" viewBox="0 0 78 72" fill="none" xmlns="http://www.w3.org/2000/svg">
    <path d="M77.7619 56.5085H-2.28882e-05V5.83215H77.7619V56.5085Z" fill="#E0EEF8"/>
    <path d="M72.4254 46.7352H54.129V28.427H72.4254V46.7352Z" fill="white"/>
    <path d="M39.3176 49.5186H9.61076V19.8118H39.3176V49.5186Z" fill="white"/>
    <path fill-rule="evenodd" clip-rule="evenodd" d="M58.1441 40.825H67.5726C68.5478 40.825 69.3387 40.0243 69.3387 39.0367V32.893C69.3387 31.9054 68.5478 31.1047 67.5726 31.1047H58.1441C57.1689 31.1047 56.3784 31.9054 56.3784 32.893V39.0367C56.3784 40.0243 57.1689 40.825 58.1441 40.825Z" stroke="#E8EBED" stroke-width="1.54525"/>
    <path d="M34.95 37.85C33.9745 38.1818 32.8378 38.3458 31.9498 37.8306C30.0701 36.7399 30.5344 33.4672 28.5555 32.5586C27.2587 31.9636 25.6537 32.7964 24.3148 32.2983C22.3047 31.5512 22.3132 28.5116 20.483 27.4094C19.2835 26.6869 17.5282 26.9642 16.6017 25.928" stroke="#698FDF" stroke-width="1.54525"/>
    <path d="M34.95 41.655C34.8483 41.655 34.7467 41.655 34.645 41.655H13.9805" stroke="#E8EBED" stroke-width="1.54525"/>
    <path d="M34.95 40.4495C33.1586 41.0232 31.1393 40.8465 29.4746 39.9706C28.0785 39.236 26.9636 38.0587 25.6119 37.2447C25.408 37.1217 25.1862 37.0035 24.9482 37.0065C24.7272 37.0086 24.5221 37.1145 24.3306 37.2237C23.6311 37.6211 22.9627 38.1048 22.1855 38.3131C21.4088 38.5214 20.4627 38.3763 20.0008 37.7176C19.7696 37.3881 19.6903 36.9787 19.6157 36.583C19.4728 35.8211 19.3294 35.0591 19.1861 34.2972C18.9712 33.1532 18.7246 31.9435 17.9342 31.0889C17.1447 30.2339 15.616 29.9556 14.8542 30.8358" stroke="#E8EBED" stroke-width="1.54525"/>
    <path d="M34.95 43.4025H13.9805" stroke="#E8EBED" stroke-width="1.54525"/>
    <path d="M68.043 40.825H66.0989V32.4008H68.043V40.825Z" fill="#E8EBED"/>
    <path d="M60.2666 40.825H58.3226V32.4008H60.2666V40.825Z" fill="#E8EBED"/>
    <path d="M64.1548 40.825H62.2107V35.6409H64.1548V40.825Z" fill="#E8EBED"/>
    <path d="M76.0153 32.9178H68.1518V25.0542H76.0153V32.9178Z" fill="#37D592"/>
    <path d="M13.9803 23.3068H5.24299V14.5695H13.9803V23.3068Z" fill="#05A9F4"/>
    <path d="M68.6895 13.9415C68.6895 21.6409 62.4516 27.883 54.7572 27.883C47.0628 27.883 40.8248 21.6409 40.8248 13.9415C40.8248 6.24204 47.0628 0 54.7572 0C62.4516 0 68.6895 6.24204 68.6895 13.9415Z" fill="#05A9F4"/>
    <path d="M67.6276 8.59998C65.5325 3.55137 60.5597 0 54.7563 0V13.9415L67.6276 8.59998Z" fill="#37D592"/>
    <path d="M38.881 53.5249C38.881 53.5249 38.7285 75.7177 38.576 78.7787C38.4236 81.8398 36.2889 97.9102 36.2889 97.9102C36.2889 97.9102 33.5444 99.2877 32.9345 99.1346C32.3246 98.9816 31.8672 59.6469 31.8672 59.6469L30.0375 59.4939L27.2929 78.9318C27.2929 78.9318 24.7009 97.9102 23.786 98.0633C22.8712 98.2163 20.7365 97.6041 20.7365 97.6041L24.2434 53.0657L26.3781 51.8413C26.3781 51.8413 31.5622 52.9127 32.782 52.7596C34.0018 52.6066 38.881 53.5249 38.881 53.5249Z" fill="#003571"/>
    <path d="M31.1048 27.2167C31.1048 30.4377 33.5708 33.0488 36.6129 33.0488C39.6549 33.0488 42.121 30.4377 42.121 27.2167C42.121 23.9957 39.6549 21.3845 36.6129 21.3845C33.5708 21.3845 31.1048 23.9957 31.1048 27.2167Z" fill="#FCD3C5"/>
    <path d="M11.6641 59.2935C11.6641 60.1885 12.3894 60.9135 13.284 60.9135C14.1789 60.9135 14.9042 60.1885 14.9042 59.2935C14.9042 58.3985 14.1789 57.6735 13.284 57.6735C12.3894 57.6735 11.6641 58.3985 11.6641 59.2935Z" fill="#FCD3C5"/>
    <path d="M36.9371 31.4321L36.4705 34.9353C36.4705 34.9353 33.049 35.2272 33.049 34.4974C33.049 33.7675 34.1376 28.5128 34.1376 28.5128L36.9371 31.4321Z" fill="#FCD3C5"/>
    <path d="M37.7635 34.2528L32.5935 33.0488L31.6534 34.8548C31.6534 34.8548 26.64 35.1558 25.7 35.9083C24.76 36.6608 23.9767 51.8612 23.9767 52.6136C23.9767 53.3661 38.7035 54.5701 39.0169 53.0651C39.3302 51.5602 39.8002 37.7143 39.3302 37.5638C38.8602 37.4133 37.1369 36.6608 37.1369 36.6608L37.7635 34.2528Z" fill="#698FDF"/>
    <path d="M39.2623 37.6813L45.6507 43.636L55.6229 36.937L57.0253 38.7234L46.4298 47.9532C46.4298 47.9532 34.8994 43.3383 35.6785 42.2962C36.4576 41.2541 39.2623 37.6813 39.2623 37.6813Z" fill="#698FDF"/>
    <path d="M36.9866 36.2889L31.7526 34.6689L32.6499 33.0488L37.5848 34.1289L36.9866 36.2889Z" fill="white"/>
    <path d="M59.8883 33.8919L54.2872 37.5849L53.7852 36.887L59.4243 33.0542L60.2653 33.0488L59.8883 33.8919Z" fill="#524F63"/>
    <path d="M55.7294 36.613C55.7294 37.5079 56.3097 38.233 57.0253 38.233C57.7412 38.233 58.3215 37.5079 58.3215 36.613C58.3215 35.718 57.7412 34.9929 57.0253 34.9929C56.3097 34.9929 55.7294 35.718 55.7294 36.613Z" fill="#FCD3C5"/>
    <path d="M38.7572 24.9571C39.271 25.9008 39.6843 26.9011 39.9876 27.9344C39.3817 27.5445 38.441 28.0972 38.4724 28.8248C38.504 29.5522 39.4886 30.0191 40.0583 29.5771C39.6438 30.5955 38.5661 31.1344 37.5754 31.5857C36.5048 32.0732 35.4342 32.561 34.3633 33.0488C33.6709 32.2404 32.6301 31.8259 31.8677 31.0854C30.8816 30.1279 30.4502 28.6914 30.4566 27.3062C30.4662 25.346 31.3244 23.386 32.8142 22.1388C34.3043 20.8915 36.412 20.4118 38.2591 20.9854C38.6187 21.0971 38.9754 21.2471 39.3516 21.2524C39.7418 21.2577 40.0642 21.0796 40.2565 20.7365C41.8913 21.7589 39.5599 24.2316 38.7572 24.9571Z" fill="#003571"/>
    <path d="M18.0519 42.266L25.9207 35.6409L25.3035 44.5771L20.3662 46.8883L15.2747 57.6734L12.9603 56.903L18.0519 42.266Z" fill="#698FDF"/>
</svg>
